<svg width="206" height="200" viewBox="0 0 206 200" fill="none" xmlns="http://www.w3.org/2000/svg">
<g id="Computers-Devices-Electronics-Laptop--Streamline-Pixel.svg">
<g id="Group">
<path id="Vector" d="M191.699 163.879H14.2393V145.611H4.92188V172.983H14.2393V182.147H191.699V172.983H201.078V145.611H191.699V163.879Z" fill="black"/>
<path id="Vector_2" d="M182.382 127.342H191.699V145.61H182.382V127.342Z" fill="black"/>
<path id="Vector_3" d="M116.976 72.5978H126.355V81.7019H116.976V72.5978Z" fill="black"/>
<path id="Vector_4" d="M88.9626 145.611H116.976V154.715H88.9626V145.611Z" fill="black"/>
<path id="Vector_5" d="M98.3412 72.5978H107.659V81.7019H98.3412V72.5978Z" fill="black"/>
<path id="Vector_6" d="M79.6452 72.5978H88.9626V81.7019H79.6452V72.5978Z" fill="black"/>
<path id="Vector_7" d="M32.9355 17.8528H173.065V26.957H32.9355V17.8528Z" fill="black"/>
<path id="Vector_8" d="M182.382 127.343V26.9572H173.065V118.238H32.9356V26.9572H23.6181V127.343H182.382Z" fill="black"/>
<path id="Vector_9" d="M14.2393 127.342H23.618V145.61H14.2393V127.342Z" fill="black"/>
</g>
</g>
</svg>
