<svg width="200" height="200" viewBox="0 0 200 200" fill="none" xmlns="http://www.w3.org/2000/svg">
<g id="Hand-Cross-Finger-Heart--Streamline-Pixel.svg">
<g id="Group">
<path id="Vector" d="M163.909 168.461H173.013V195.833H163.909V168.461Z" fill="#FCF8F4"/>
<path id="Vector_2" d="M154.745 159.357H163.909V168.461H154.745V159.357Z" fill="#FCF8F4"/>
<path id="Vector_3" d="M145.641 168.461H154.745V177.565H145.641V168.461Z" fill="#FCF8F4"/>
<path id="Vector_4" d="M145.641 150.193H154.745V159.357H145.641V150.193Z" fill="#FCF8F4"/>
<path id="Vector_5" d="M136.477 177.565H145.641V186.729H136.477V177.565Z" fill="#FCF8F4"/>
<path id="Vector_6" d="M127.372 141.089H145.641V150.193H127.372V141.089Z" fill="#FCF8F4"/>
<path id="Vector_7" d="M136.477 68.0754H145.641V95.4478H136.477V68.0754Z" fill="#FCF8F4"/>
<path id="Vector_8" d="M127.372 186.729H136.477V195.833H127.372V186.729Z" fill="#FCF8F4"/>
<path id="Vector_9" d="M127.372 95.4479H136.477V104.552H127.372V95.4479Z" fill="#FCF8F4"/>
<path id="Vector_10" d="M118.268 58.9114H136.477V68.0754H118.268V58.9114Z" fill="#FCF8F4"/>
<path id="Vector_11" d="M118.268 150.193H127.372V159.357H118.268V150.193Z" fill="#FCF8F4"/>
<path id="Vector_12" d="M109.104 131.924H127.372V141.089H109.104V131.924Z" fill="#FCF8F4"/>
<path id="Vector_13" d="M118.268 104.552H127.372V113.716H118.268V104.552Z" fill="#FCF8F4"/>
<path id="Vector_14" d="M109.104 159.357H118.268V168.461H109.104V159.357Z" fill="#FCF8F4"/>
<path id="Vector_15" d="M109.104 113.716H118.268V122.82H109.104V113.716Z" fill="#FCF8F4"/>
<path id="Vector_16" d="M109.104 68.0754H118.268V77.1796H109.104V68.0754Z" fill="#FCF8F4"/>
<path id="Vector_17" d="M100 168.461H109.104V177.565H100V168.461Z" fill="#FCF8F4"/>
<path id="Vector_18" d="M100 122.82H109.104V131.924H100V122.82Z" fill="#FCF8F4"/>
<path id="Vector_19" d="M100 77.1797H109.104V86.2839H100V77.1797Z" fill="#FCF8F4"/>
<path id="Vector_20" d="M90.8958 131.924H100V141.089H90.8958V131.924Z" fill="#FCF8F4"/>
<path id="Vector_21" d="M90.8958 86.2838H100V95.4479H90.8958V86.2838Z" fill="#FCF8F4"/>
<path id="Vector_22" d="M81.7318 141.089H90.8958V150.193H81.7318V141.089Z" fill="#FCF8F4"/>
<path id="Vector_23" d="M81.7318 95.4479H90.8958V104.552H81.7318V95.4479Z" fill="#FCF8F4"/>
<path id="Vector_24" d="M72.6276 104.552H81.7318V113.716H72.6276V104.552Z" fill="#FCF8F4"/>
<path id="Vector_25" d="M72.6276 77.1797H81.7318V95.4479H72.6276V77.1797Z" fill="#FCF8F4"/>
<path id="Vector_26" d="M63.4635 113.716H72.6276V122.82H63.4635V113.716Z" fill="#FCF8F4"/>
<path id="Vector_27" d="M63.4635 4.16663V13.2708H54.3594V31.539H63.4635V40.7031H72.6276V49.8072H81.7318V58.9114H90.8958V49.8072H100V40.7031H109.104V31.539H118.268V13.2708H109.104V4.16663H90.8958V13.2708H81.7318V4.16663L63.4635 4.16663Z" fill="#FCF8F4"/>
<path id="Vector_28" d="M45.2552 68.0754H72.6276V77.1796H45.2552V68.0754Z" fill="#FCF8F4"/>
<path id="Vector_29" d="M54.3594 104.552H45.2552V141.088H54.3594V131.924H63.4635V122.82H54.3594V104.552Z" fill="#FCF8F4"/>
<path id="Vector_30" d="M36.0911 141.089H45.2552V150.193H36.0911V141.089Z" fill="#FCF8F4"/>
<path id="Vector_31" d="M36.0911 77.1797H45.2552V104.552H36.0911V77.1797Z" fill="#FCF8F4"/>
<path id="Vector_32" d="M26.987 150.193H36.0911V195.833H26.987V150.193Z" fill="#FCF8F4"/>
</g>
</g>
</svg>
